<svg width="31" height="41" viewBox="0 0 31 41" fill="none" xmlns="http://www.w3.org/2000/svg">
<g filter="url(#filter0_d_24_3654)">
<path d="M15.5006 0C9.17992 0 4 5.18681 4 11.5173C4 13.9702 4.78008 16.2499 6.10019 18.1235L14.097 32.0079C15.2168 33.4774 15.9614 33.1983 16.8926 31.9303L25.7131 16.8552C25.891 16.5314 26.0309 16.1866 26.1527 15.8345C26.7124 14.4646 27.0002 12.9981 27 11.5173C27.0004 5.18681 21.822 0 15.5006 0ZM15.5006 5.39645C18.9046 5.39645 21.6113 8.10866 21.6113 11.5173C21.6113 14.926 18.9046 17.6371 15.5006 17.6371C12.0969 17.6371 9.38905 14.9264 9.38905 11.5173C9.38905 8.10866 12.0969 5.39645 15.5006 5.39645Z" fill="#144583"/>
</g>
<defs>
<filter id="filter0_d_24_3654" x="0" y="0" width="31" height="41" filterUnits="userSpaceOnUse" color-interpolation-filters="sRGB">
<feFlood flood-opacity="0" result="BackgroundImageFix"/>
<feColorMatrix in="SourceAlpha" type="matrix" values="0 0 0 0 0 0 0 0 0 0 0 0 0 0 0 0 0 0 127 0" result="hardAlpha"/>
<feOffset dy="4"/>
<feGaussianBlur stdDeviation="2"/>
<feComposite in2="hardAlpha" operator="out"/>
<feColorMatrix type="matrix" values="0 0 0 0 0 0 0 0 0 0 0 0 0 0 0 0 0 0 0.25 0"/>
<feBlend mode="normal" in2="BackgroundImageFix" result="effect1_dropShadow_24_3654"/>
<feBlend mode="normal" in="SourceGraphic" in2="effect1_dropShadow_24_3654" result="shape"/>
</filter>
</defs>
</svg>
